<svg xmlns="http://www.w3.org/2000/svg" xmlns:xlink="http://www.w3.org/1999/xlink" preserveAspectRatio="xMidYMid" width="131" height="27" viewBox="0 0 131 27">
  <defs>
    <style>

      .cls-2 {
        fill: #707070;
      }
    </style>
  </defs>
  <path d="M130.484,17.932 C130.484,17.932 130.484,20.175 130.484,20.175 C130.484,20.175 121.550,20.175 121.550,20.175 C121.550,16.154 121.550,12.115 121.550,8.093 C121.550,8.093 130.484,8.093 130.484,8.093 C130.484,8.093 130.484,10.303 130.484,10.303 C130.484,10.303 123.784,10.303 123.784,10.303 C123.784,10.303 123.784,13.081 123.784,13.081 C123.784,13.081 130.245,13.081 130.245,13.081 C130.245,13.081 130.245,15.205 130.245,15.205 C130.245,15.205 123.784,15.205 123.784,15.205 C123.784,15.205 123.784,17.932 123.784,17.932 C123.784,17.932 130.484,17.932 130.484,17.932 ZM114.515,16.137 C114.515,16.137 112.350,16.137 112.350,16.137 C112.350,16.137 112.350,20.175 112.350,20.175 C112.350,20.175 110.100,20.175 110.100,20.175 C110.100,20.175 110.100,8.076 110.100,8.076 C111.992,8.076 113.885,8.093 115.777,8.093 C118.590,8.111 120.073,10.009 120.073,12.098 C120.073,13.755 119.323,15.429 117.056,15.895 C117.056,15.895 120.670,20.020 120.670,20.020 C120.670,20.020 120.670,20.175 120.670,20.175 C120.670,20.175 117.993,20.175 117.993,20.175 C117.993,20.175 114.515,16.137 114.515,16.137 ZM117.823,12.149 C117.823,11.183 117.192,10.216 115.777,10.216 C115.777,10.216 112.350,10.216 112.350,10.216 C112.350,10.216 112.350,14.083 112.350,14.083 C112.350,14.083 115.777,14.083 115.777,14.083 C117.209,14.083 117.823,13.116 117.823,12.149 ZM102.725,20.434 C99.860,20.434 97.422,18.674 97.422,15.032 C97.422,15.032 97.422,8.111 97.422,8.111 C97.422,8.111 99.656,8.111 99.656,8.111 C99.656,8.111 99.656,15.032 99.656,15.032 C99.656,17.207 100.883,18.363 102.742,18.363 C104.600,18.363 105.657,17.103 105.657,15.032 C105.657,15.032 105.657,8.111 105.657,8.111 C105.657,8.111 107.890,8.111 107.890,8.111 C107.890,8.111 107.890,15.032 107.890,15.032 C107.890,18.605 105.725,20.434 102.725,20.434 ZM91.922,20.175 C91.922,20.175 89.671,20.175 89.671,20.175 C89.671,20.175 89.671,10.165 89.671,10.165 C89.671,10.165 85.886,10.165 85.886,10.165 C85.886,10.165 85.886,8.093 85.886,8.093 C89.330,8.093 92.246,8.093 95.707,8.093 C95.707,8.093 95.707,10.165 95.707,10.165 C95.707,10.165 91.922,10.165 91.922,10.165 C91.922,10.165 91.922,20.175 91.922,20.175 ZM78.989,16.137 C78.989,16.137 76.823,16.137 76.823,16.137 C76.823,16.137 76.823,20.175 76.823,20.175 C76.823,20.175 74.573,20.175 74.573,20.175 C74.573,20.175 74.573,8.076 74.573,8.076 C76.465,8.076 78.358,8.093 80.250,8.093 C83.063,8.111 84.546,10.009 84.546,12.098 C84.546,13.755 83.796,15.429 81.529,15.895 C81.529,15.895 85.143,20.020 85.143,20.020 C85.143,20.020 85.143,20.175 85.143,20.175 C85.143,20.175 82.466,20.175 82.466,20.175 C82.466,20.175 78.989,16.137 78.989,16.137 ZM82.296,12.149 C82.296,11.183 81.665,10.216 80.250,10.216 C80.250,10.216 76.823,10.216 76.823,10.216 C76.823,10.216 76.823,14.083 76.823,14.083 C76.823,14.083 80.250,14.083 80.250,14.083 C81.682,14.083 82.296,13.116 82.296,12.149 ZM63.889,8.093 C63.889,8.093 72.823,8.093 72.823,8.093 C72.823,8.093 72.823,10.303 72.823,10.303 C72.823,10.303 66.123,10.303 66.123,10.303 C66.123,10.303 66.123,13.081 66.123,13.081 C66.123,13.081 72.584,13.081 72.584,13.081 C72.584,13.081 72.584,15.205 72.584,15.205 C72.584,15.205 66.123,15.205 66.123,15.205 C66.123,15.205 66.123,17.932 66.123,17.932 C66.123,17.932 72.823,17.932 72.823,17.932 C72.823,17.932 72.823,20.175 72.823,20.175 C72.823,20.175 63.889,20.175 63.889,20.175 C63.889,16.154 63.889,12.115 63.889,8.093 ZM58.031,16.620 C58.031,16.620 54.655,16.620 54.655,16.620 C54.655,16.620 54.655,20.175 54.655,20.175 C54.655,20.175 52.405,20.175 52.405,20.175 C52.405,20.175 52.405,8.093 52.405,8.093 C54.280,8.093 56.155,8.076 58.031,8.076 C63.861,8.076 63.878,16.620 58.031,16.620 ZM58.031,10.251 C58.031,10.251 54.655,10.251 54.655,10.251 C54.655,10.251 54.655,14.531 54.655,14.531 C54.655,14.531 58.031,14.531 58.031,14.531 C60.912,14.531 60.895,10.251 58.031,10.251 ZM48.115,17.897 C48.115,17.897 41.875,17.897 41.875,17.897 C41.875,17.897 40.853,20.175 40.853,20.175 C40.853,20.175 38.415,20.175 38.415,20.175 C38.415,20.175 43.768,8.093 43.768,8.093 C43.768,8.093 46.223,8.093 46.223,8.093 C46.223,8.093 51.576,20.175 51.576,20.175 C51.576,20.175 49.121,20.175 49.121,20.175 C49.121,20.175 48.115,17.897 48.115,17.897 ZM44.995,10.631 C44.995,10.631 42.779,15.774 42.779,15.774 C42.779,15.774 47.212,15.774 47.212,15.774 C47.212,15.774 44.995,10.631 44.995,10.631 ZM13.334,26.998 C5.982,26.998 -0.000,20.942 -0.000,13.498 C-0.000,6.055 5.982,-0.002 13.334,-0.002 C20.687,-0.002 26.669,6.055 26.669,13.498 C26.669,20.942 20.687,26.998 13.334,26.998 ZM11.251,24.259 C11.251,24.259 13.747,21.092 13.747,21.092 C13.747,21.092 5.535,21.092 5.535,21.092 C7.048,22.685 9.027,23.819 11.251,24.259 ZM2.500,13.498 C2.500,15.324 2.949,17.045 3.733,18.561 C3.733,18.561 7.729,18.561 7.729,18.561 C7.729,18.561 2.606,12.047 2.606,12.047 C2.544,12.523 2.500,13.005 2.500,13.498 ZM3.442,9.046 C3.442,9.046 5.930,12.210 5.930,12.210 C5.930,12.210 7.763,4.109 7.763,4.109 C5.869,5.265 4.351,6.986 3.442,9.046 ZM7.922,14.742 C7.922,14.742 10.925,18.561 10.925,18.561 C10.925,18.561 15.741,18.561 15.741,18.561 C15.741,18.561 18.744,14.749 18.744,14.749 C18.744,14.749 17.674,9.997 17.674,9.997 C17.674,9.997 13.337,7.880 13.337,7.880 C13.337,7.880 8.996,9.993 8.996,9.993 C8.996,9.993 7.922,14.742 7.922,14.742 ZM13.334,2.530 C12.389,2.530 11.476,2.666 10.601,2.897 C10.601,2.897 9.710,6.837 9.710,6.837 C9.710,6.837 17.115,3.232 17.115,3.232 C15.936,2.786 14.666,2.530 13.334,2.530 ZM19.813,4.728 C19.813,4.728 16.220,6.477 16.220,6.477 C16.220,6.477 23.627,10.092 23.627,10.092 C22.927,7.928 21.576,6.066 19.813,4.728 ZM22.382,19.516 C23.509,17.786 24.169,15.720 24.169,13.498 C24.169,13.384 24.155,13.273 24.152,13.159 C24.152,13.159 20.556,11.404 20.556,11.404 C20.556,11.404 22.382,19.516 22.382,19.516 ZM19.455,17.907 C19.455,17.907 14.327,24.416 14.327,24.416 C16.610,24.205 18.688,23.274 20.343,21.849 C20.343,21.849 19.455,17.907 19.455,17.907 Z" id="path-1" class="cls-2" fill-rule="evenodd"/>
</svg>
