<svg xmlns="http://www.w3.org/2000/svg" xmlns:xlink="http://www.w3.org/1999/xlink" preserveAspectRatio="xMidYMid" width="69" height="80" viewBox="0 0 69 80">
  <defs>
    <style>

      .cls-2 {
        fill: #123447;
      }
    </style>
  </defs>
  <path d="M66.515,62.251 C66.515,62.251 59.303,62.251 59.303,62.251 C58.943,62.251 58.586,62.171 58.259,62.018 C58.259,62.018 52.447,59.293 52.447,59.293 C52.447,59.293 52.447,62.682 52.447,62.682 C52.447,64.064 51.338,65.185 49.968,65.185 C49.968,65.185 12.095,65.185 12.095,65.185 C10.727,65.185 9.617,64.064 9.617,62.682 C9.617,62.682 9.617,50.374 9.617,50.374 C9.617,50.374 4.505,50.374 4.505,50.374 C3.136,50.374 2.027,49.253 2.027,47.871 C2.027,47.871 2.027,39.461 2.027,39.461 C2.027,38.079 3.136,36.958 4.505,36.958 C4.505,36.958 49.968,36.958 49.968,36.958 C51.338,36.958 52.447,38.079 52.447,39.461 C52.447,39.461 52.447,44.119 52.447,44.119 C52.447,44.119 58.260,41.395 58.260,41.395 C58.586,41.242 58.943,41.163 59.303,41.163 C59.303,41.163 66.515,41.163 66.515,41.163 C67.884,41.163 68.994,42.284 68.994,43.666 C68.994,43.666 68.994,59.748 68.994,59.748 C68.994,61.130 67.884,62.251 66.515,62.251 ZM47.489,48.569 C47.489,48.569 42.500,48.569 42.500,48.569 C41.588,48.569 40.848,47.822 40.848,46.901 C40.848,45.979 41.588,45.232 42.500,45.232 C42.500,45.232 47.489,45.232 47.489,45.232 C47.489,45.232 47.489,41.964 47.489,41.964 C47.489,41.964 6.984,41.964 6.984,41.964 C6.984,41.964 6.984,45.232 6.984,45.232 C6.984,45.232 34.962,45.232 34.962,45.232 C35.874,45.232 36.614,45.979 36.614,46.901 C36.614,47.822 35.874,48.569 34.962,48.569 C34.962,48.569 14.574,48.569 14.574,48.569 C14.574,48.569 14.574,60.179 14.574,60.179 C14.574,60.179 47.489,60.179 47.489,60.179 C47.489,60.179 47.489,48.569 47.489,48.569 ZM64.036,46.169 C64.036,46.169 59.849,46.169 59.849,46.169 C59.849,46.169 53.490,49.149 53.490,49.149 C53.490,49.149 53.490,54.262 53.490,54.262 C53.490,54.262 57.272,56.036 57.272,56.036 C57.272,56.036 57.272,51.090 57.272,51.090 C57.272,50.169 58.013,49.422 58.926,49.422 C59.837,49.422 60.578,50.169 60.578,51.090 C60.578,51.090 60.578,57.244 60.578,57.244 C60.578,57.244 64.036,57.244 64.036,57.244 C64.036,57.244 64.036,46.169 64.036,46.169 ZM45.304,33.838 C39.266,33.838 33.979,30.584 31.030,25.731 C28.083,30.584 22.796,33.838 16.758,33.838 C7.521,33.838 0.006,26.248 0.006,16.918 C0.006,7.590 7.521,-0.000 16.758,-0.000 C22.796,-0.000 28.083,3.254 31.030,8.108 C33.979,3.254 39.266,-0.000 45.304,-0.000 C54.542,-0.000 62.056,7.590 62.056,16.918 C62.056,26.248 54.542,33.838 45.304,33.838 ZM16.758,5.006 C10.254,5.006 4.964,10.350 4.964,16.918 C4.964,23.487 10.254,28.832 16.758,28.832 C23.261,28.832 28.552,23.487 28.552,16.918 C28.552,10.350 23.261,5.006 16.758,5.006 ZM45.304,5.006 C38.802,5.006 33.509,10.350 33.509,16.918 C33.509,23.487 38.802,28.832 45.304,28.832 C51.809,28.832 57.099,23.487 57.099,16.918 C57.099,10.350 51.809,5.006 45.304,5.006 ZM45.304,22.279 C42.379,22.279 39.998,19.874 39.998,16.918 C39.998,13.963 42.379,11.559 45.304,11.559 C48.232,11.559 50.613,13.963 50.613,16.918 C50.613,19.874 48.232,22.279 45.304,22.279 ZM45.304,14.896 C44.199,14.896 43.303,15.803 43.303,16.918 C43.303,18.034 44.199,18.941 45.304,18.941 C46.409,18.941 47.307,18.034 47.307,16.918 C47.307,15.803 46.409,14.896 45.304,14.896 ZM16.758,22.279 C13.832,22.279 11.451,19.874 11.451,16.918 C11.451,13.963 13.832,11.559 16.758,11.559 C19.684,11.559 22.065,13.963 22.065,16.918 C22.065,19.874 19.684,22.279 16.758,22.279 ZM16.758,14.896 C15.653,14.896 14.755,15.803 14.755,16.918 C14.755,18.034 15.653,18.941 16.758,18.941 C17.863,18.941 18.761,18.034 18.761,16.918 C18.761,15.803 17.863,14.896 16.758,14.896 ZM21.787,75.591 C21.787,75.591 29.428,69.017 29.428,69.017 C30.354,68.220 31.716,68.220 32.642,69.016 C32.642,69.016 40.286,75.591 40.286,75.591 C41.328,76.487 41.453,78.067 40.566,79.119 C40.076,79.701 39.379,80.000 38.678,80.000 C38.110,80.000 37.539,79.804 37.072,79.403 C37.072,79.403 31.035,74.210 31.035,74.210 C31.035,74.210 25.001,79.402 25.001,79.402 C23.960,80.297 22.396,80.174 21.507,79.120 C20.620,78.067 20.744,76.487 21.787,75.591 Z" id="path-1" class="cls-2" fill-rule="evenodd"/>
</svg>
