<svg xmlns="http://www.w3.org/2000/svg" xmlns:xlink="http://www.w3.org/1999/xlink" preserveAspectRatio="xMidYMid" width="74" height="67" viewBox="0 0 74 67">
  <defs>
    <style>

      .cls-2 {
        fill: #123447;
      }
    </style>
  </defs>
  <path d="M73.239,16.049 C73.239,16.049 64.175,2.110 64.175,2.110 C63.318,0.794 61.864,-0.001 60.304,-0.001 C60.304,-0.001 13.694,-0.001 13.694,-0.001 C12.136,-0.001 10.680,0.794 9.823,2.110 C9.823,2.110 0.761,16.049 0.761,16.049 C-0.311,17.698 -0.245,19.850 0.926,21.429 C0.926,21.429 33.293,65.124 33.293,65.124 C34.168,66.305 35.541,67.000 37.000,67.000 C38.459,67.000 39.832,66.305 40.707,65.124 C40.707,65.124 73.075,21.429 73.075,21.429 C74.246,19.850 74.310,17.698 73.239,16.049 ZM37.107,4.682 C37.107,4.682 45.902,17.061 45.902,17.061 C45.902,17.061 28.097,17.061 28.097,17.061 C28.097,17.061 36.892,4.682 36.892,4.682 C36.892,4.682 37.107,4.682 37.107,4.682 ZM46.884,20.182 C46.884,20.182 37.000,56.444 37.000,56.444 C37.000,56.444 27.114,20.182 27.114,20.182 C27.114,20.182 46.884,20.182 46.884,20.182 ZM40.908,4.682 C40.908,4.682 56.913,4.682 56.913,4.682 C56.913,4.682 48.911,15.947 48.911,15.947 C48.911,15.947 40.908,4.682 40.908,4.682 ZM13.694,4.682 C13.694,4.682 33.091,4.682 33.091,4.682 C33.091,4.682 25.088,15.947 25.088,15.947 C25.088,15.947 19.755,8.441 19.755,8.441 C19.257,7.740 18.294,7.579 17.601,8.083 C16.909,8.585 16.751,9.562 17.249,10.261 C17.249,10.261 22.078,17.061 22.078,17.061 C22.078,17.061 5.645,17.061 5.645,17.061 C5.645,17.061 13.694,4.682 13.694,4.682 ZM5.788,20.182 C5.788,20.182 23.913,20.182 23.913,20.182 C23.913,20.182 34.466,58.897 34.466,58.897 C34.466,58.897 5.788,20.182 5.788,20.182 ZM39.534,58.897 C39.534,58.897 50.087,20.182 50.087,20.182 C50.087,20.182 53.346,20.182 53.346,20.182 C54.198,20.182 54.889,19.483 54.889,18.621 C54.889,17.760 54.198,17.061 53.346,17.061 C53.346,17.061 51.921,17.061 51.921,17.061 C51.921,17.061 60.501,4.984 60.501,4.984 C60.501,4.984 68.354,17.061 68.354,17.061 C68.354,17.061 62.998,17.061 62.998,17.061 C62.145,17.061 61.454,17.760 61.454,18.621 C61.454,19.483 62.145,20.182 62.998,20.182 C62.998,20.182 68.212,20.182 68.212,20.182 C68.212,20.182 39.534,58.897 39.534,58.897 Z" id="path-1" class="cls-2" fill-rule="evenodd"/>
</svg>
