<svg xmlns="http://www.w3.org/2000/svg" xmlns:xlink="http://www.w3.org/1999/xlink" preserveAspectRatio="xMidYMid" width="94" height="71" viewBox="0 0 94 71">
  <defs>
    <style>

      .cls-2 {
        fill: #123447;
      }
    </style>
  </defs>
  <path d="M84.812,9.542 C84.812,9.542 66.528,9.542 66.528,9.542 C66.528,9.542 66.528,9.079 66.528,9.079 C66.528,4.068 62.407,-0.009 57.341,-0.009 C57.341,-0.009 36.656,-0.009 36.656,-0.009 C31.591,-0.009 27.469,4.068 27.469,9.079 C27.469,9.079 27.469,9.542 27.469,9.542 C27.469,9.542 9.187,9.542 9.187,9.542 C4.121,9.542 -0.000,13.619 -0.000,18.629 C-0.000,18.629 -0.000,61.921 -0.000,61.921 C-0.000,66.932 4.121,71.009 9.187,71.009 C9.187,71.009 84.812,71.009 84.812,71.009 C89.878,71.009 94.000,66.932 94.000,61.921 C94.000,61.921 94.000,18.629 94.000,18.629 C94.000,13.619 89.878,9.542 84.812,9.542 ZM33.358,9.079 C33.358,7.280 34.838,5.816 36.656,5.816 C36.656,5.816 57.341,5.816 57.341,5.816 C59.160,5.816 60.639,7.280 60.639,9.079 C60.639,9.079 60.639,9.542 60.639,9.542 C60.639,9.542 33.358,9.542 33.358,9.542 C33.358,9.542 33.358,9.079 33.358,9.079 ZM9.187,15.367 C9.187,15.367 84.812,15.367 84.812,15.367 C86.629,15.367 88.109,16.831 88.109,18.629 C88.109,18.629 88.109,24.757 88.109,24.757 C88.037,24.960 87.990,25.176 87.990,25.403 C87.990,26.965 87.481,28.934 83.522,30.336 C83.522,30.336 60.857,36.011 60.857,36.011 C60.534,33.037 57.779,30.705 54.435,30.705 C54.435,30.705 39.563,30.705 39.563,30.705 C36.205,30.705 33.441,33.058 33.139,36.051 C33.139,36.051 10.313,30.336 10.313,30.336 C6.928,29.136 6.067,27.522 5.889,26.103 C5.889,26.103 5.889,18.629 5.889,18.629 C5.889,16.831 7.370,15.367 9.187,15.367 ZM56.964,36.598 C56.964,36.598 56.964,40.400 56.964,40.400 C56.964,41.489 55.805,42.406 54.435,42.406 C54.435,42.406 39.563,42.406 39.563,42.406 C38.192,42.406 37.034,41.489 37.034,40.400 C37.034,40.400 37.034,36.598 37.034,36.598 C37.034,35.508 38.192,34.588 39.563,34.588 C39.563,34.588 54.435,34.588 54.435,34.588 C55.805,34.588 56.964,35.508 56.964,36.598 ZM84.812,65.183 C84.812,65.183 9.187,65.183 9.187,65.183 C7.370,65.183 5.889,63.720 5.889,61.921 C5.889,61.921 5.889,61.192 5.889,61.192 C7.084,61.879 8.468,62.279 9.948,62.279 C9.948,62.279 65.123,62.279 65.123,62.279 C66.207,62.279 67.085,61.410 67.085,60.337 C67.085,59.265 66.207,58.396 65.123,58.396 C65.123,58.396 9.948,58.396 9.948,58.396 C7.956,58.396 6.289,57.016 5.889,55.184 C5.889,55.184 5.889,32.502 5.889,32.502 C6.801,33.091 7.867,33.601 9.091,34.027 C9.147,34.047 9.203,34.064 9.261,34.079 C9.261,34.079 33.109,40.050 33.109,40.050 C33.109,40.050 33.109,40.400 33.109,40.400 C33.109,43.649 36.003,46.291 39.563,46.291 C39.563,46.291 54.435,46.291 54.435,46.291 C57.995,46.291 60.890,43.649 60.890,40.400 C60.890,40.400 60.890,40.010 60.890,40.010 C60.890,40.010 84.575,34.079 84.575,34.079 C84.632,34.064 84.690,34.047 84.744,34.027 C86.044,33.576 87.163,33.026 88.109,32.390 C88.109,32.390 88.109,55.184 88.109,55.184 C87.710,57.016 86.044,58.396 84.051,58.396 C84.051,58.396 74.553,58.396 74.553,58.396 C73.469,58.396 72.590,59.265 72.590,60.337 C72.590,61.410 73.469,62.279 74.553,62.279 C74.553,62.279 84.051,62.279 84.051,62.279 C85.530,62.279 86.916,61.879 88.109,61.192 C88.109,61.192 88.109,61.921 88.109,61.921 C88.109,63.720 86.629,65.183 84.812,65.183 Z" id="path-1" class="cls-2" fill-rule="evenodd"/>
</svg>
